<svg width="1263" height="98" viewBox="0 0 1263 98" fill="none" xmlns="http://www.w3.org/2000/svg">
<g filter="url(#filter0_d_3518_79)">
<path d="M45.04 89.64C17.8 89.64 4 70.68 4 45.12C4 18.84 18.52 0 45.64 0C69.04 0 81.52 13.92 83.56 33.84H61.48C59.92 24.48 56.08 17.64 44.68 17.64C30.4 17.64 26.08 28.68 26.08 44.76C26.08 60.96 30.4 72 44.68 72C56.2 72 60.04 65.16 61.48 55.56H83.56C81.64 75.24 68.68 89.64 45.04 89.64Z" fill="white"/>
<path d="M132.261 89.64C105.021 89.64 89.7812 70.68 89.7812 44.76C89.7812 18.96 105.021 0 132.261 0C159.261 0 174.741 18.96 174.741 44.76C174.741 70.68 159.261 89.64 132.261 89.64ZM111.861 44.76C111.861 59.76 116.541 72 132.261 72C147.861 72 152.661 59.76 152.661 44.76C152.661 29.88 147.861 17.64 132.261 17.64C116.541 17.64 111.861 29.88 111.861 44.76Z" fill="white"/>
<path d="M185.491 87.72V1.92H207.091L237.091 52.92H237.331V1.92H258.931V87.72H237.331L207.331 36.72H207.091V87.72H185.491Z" fill="white"/>
<path d="M307.941 89.64C285.501 89.64 268.581 78.24 268.581 58.56H290.421C290.421 68.52 297.981 72.24 307.701 72.24C315.741 72.24 319.821 69 319.821 64.56C319.821 57.24 311.301 55.32 299.421 51.72C284.541 47.16 271.221 41.4 271.221 26.04C271.221 7.32 285.861 0 304.341 0C324.381 0 340.101 10.56 340.701 27.96H318.861C317.901 21.36 312.621 17.4 304.341 17.4C297.861 17.4 293.301 19.56 293.301 24.48C293.301 30.24 298.101 32.16 309.021 35.4C325.221 40.2 341.901 44.76 341.901 62.52C341.901 78.96 329.421 89.64 307.941 89.64Z" fill="white"/>
<path d="M368.527 87.72V19.56H343.567V1.92H414.967V19.56H390.127V87.72H368.527Z" fill="white"/>
<path d="M423.967 87.72V1.92H464.407C483.487 1.92 495.007 10.8 495.007 26.4C495.007 38.4 488.287 45.48 477.607 47.88V48.12C499.087 51.84 491.287 85.08 496.207 86.52V87.72H473.767C469.567 84.12 477.367 57.84 459.007 57.84H445.567V87.72H423.967ZM445.567 40.2H460.207C468.847 40.2 473.407 37.08 473.407 29.88C473.407 22.68 468.847 19.56 460.207 19.56H445.567V40.2Z" fill="white"/>
<path d="M541.744 89.64C515.824 89.64 505.864 78.12 505.864 56.76V1.92H527.464V56.76C527.464 67.92 532.264 72 541.744 72C551.224 72 556.024 67.92 556.024 56.76V1.92H577.624V56.76C577.624 78.12 567.664 89.64 541.744 89.64Z" fill="white"/>
<path d="M628.751 89.64C601.511 89.64 587.711 70.68 587.711 45.12C587.711 18.84 602.231 0 629.351 0C652.751 0 665.231 13.92 667.271 33.84H645.191C643.631 24.48 639.791 17.64 628.391 17.64C614.111 17.64 609.791 28.68 609.791 44.76C609.791 60.96 614.111 72 628.391 72C639.911 72 643.751 65.16 645.191 55.56H667.271C665.351 75.24 652.391 89.64 628.751 89.64Z" fill="white"/>
<path d="M693.254 87.72V19.56H668.294V1.92H739.694V19.56H714.854V87.72H693.254Z" fill="white"/>
<path d="M748.694 87.72V1.92H770.294V87.72H748.694Z" fill="white"/>
<path d="M823.55 89.64C796.31 89.64 781.07 70.68 781.07 44.76C781.07 18.96 796.31 0 823.55 0C850.55 0 866.03 18.96 866.03 44.76C866.03 70.68 850.55 89.64 823.55 89.64ZM803.15 44.76C803.15 59.76 807.83 72 823.55 72C839.15 72 843.95 59.76 843.95 44.76C843.95 29.88 839.15 17.64 823.55 17.64C807.83 17.64 803.15 29.88 803.15 44.76Z" fill="white"/>
<path d="M876.78 87.72V1.92H898.38L928.38 52.92H928.62V1.92H950.22V87.72H928.62L898.62 36.72H898.38V87.72H876.78Z" fill="white"/>
<path d="M987.522 87.72V1.92H1029.16C1047.04 1.92 1058.2 11.28 1058.2 29.28C1058.2 47.28 1047.04 56.64 1029.16 56.64H1009.12V87.72H987.522ZM1009.12 39H1024.12C1031.56 39 1036.12 36.48 1036.12 29.28C1036.12 22.08 1031.56 19.56 1024.12 19.56H1009.12V39Z" fill="#BB1928"/>
<path d="M1067.33 87.72V1.92H1093.73L1111.37 56.64H1111.61L1129.25 1.92H1155.65V87.72H1135.25V34.32H1135.01L1119.05 87.72H1103.93L1087.97 34.32H1087.73V87.72H1067.33Z" fill="#BB1928"/>
<path d="M1170.1 87.72V1.92H1196.5L1214.14 56.64H1214.38L1232.02 1.92H1258.42V87.72H1238.02V34.32H1237.78L1221.82 87.72H1206.7L1190.74 34.32H1190.5V87.72H1170.1Z" fill="#BB1928"/>
</g>
<defs>
<filter id="filter0_d_3518_79" x="0" y="0" width="1262.42" height="97.6406" filterUnits="userSpaceOnUse" color-interpolation-filters="sRGB">
<feFlood flood-opacity="0" result="BackgroundImageFix"/>
<feColorMatrix in="SourceAlpha" type="matrix" values="0 0 0 0 0 0 0 0 0 0 0 0 0 0 0 0 0 0 127 0" result="hardAlpha"/>
<feOffset dy="4"/>
<feGaussianBlur stdDeviation="2"/>
<feComposite in2="hardAlpha" operator="out"/>
<feColorMatrix type="matrix" values="0 0 0 0 0 0 0 0 0 0 0 0 0 0 0 0 0 0 0.25 0"/>
<feBlend mode="normal" in2="BackgroundImageFix" result="effect1_dropShadow_3518_79"/>
<feBlend mode="normal" in="SourceGraphic" in2="effect1_dropShadow_3518_79" result="shape"/>
</filter>
</defs>
</svg>
